<?xml version="1.0" encoding="UTF-8" standalone="no"?>
<svg
   id="emoji"
   viewBox="0 0 51.79475 51.778599"
   version="1.1"
   width="51.79475"
   height="51.778599"
   xmlns="http://www.w3.org/2000/svg"
   xmlns:svg="http://www.w3.org/2000/svg">
  <defs
     id="defs84" />
  <g
     id="layer1"
     transform="translate(-9.880525,-10.2742)">
    <path
       style="fill:#fe98ff;fill-opacity:1;stroke-width:0.0872735"
       d="m 34.661738,35.69375 c -6.667005,-6.550189 -6.470144,-6.381241 -7.142638,-6.129867 -0.404942,0.151366 -0.667736,0.489606 -0.732759,0.94313 l -0.05018,0.350073 -0.858685,-0.847227 -0.858682,-0.84723 7.5516,-7.401954 c 6.610251,-6.479261 7.654703,-7.468804 8.378697,-7.938223 2.085154,-1.351956 4.28277,-2.046461 6.79423,-2.147158 l 1.192605,-0.04782 0.492244,0.552683 c 0.775475,0.87069 1.421212,1.805966 1.956574,2.83387 2.297251,4.410758 1.97095,9.502684 -0.964062,15.044245 -1.732323,3.270776 -4.02766,6.244265 -7.472237,9.679894 -1.109409,1.106528 -2.0408,2.011868 -2.069756,2.011868 -0.02896,0 -2.82658,-2.725329 -6.216941,-6.056287 z"
       id="path10436" />
    <path
       style="fill:#fe98ff;fill-opacity:1;stroke-width:0.091913"
       d="m 15.116067,56.614234 c -3.434065,-3.51705 -4.618502,-8.193277 -3.238917,-12.787436 0.355642,-1.184323 1.326634,-3.005689 2.158658,-4.049161 0.495421,-0.621326 2.535501,-2.620088 6.905268,-6.765412 l 6.202106,-5.883551 7.675167,7.346337 7.675167,7.346335 -1.785925,1.679244 c -4.480159,4.212534 -7.38158,6.878784 -8.927765,8.204133 -4.159412,3.565341 -6.263627,4.807633 -9.159581,5.40766 -0.483505,0.100182 -1.478941,0.1485 -3.728682,0.180998 l -3.069086,0.04433 z"
       id="path34105" />
    <path
       style="fill:#e777e9;fill-opacity:1;stroke-width:0.0888624"
       d="m 41.225312,45.913224 c -0.909253,-0.863972 -0.942883,-0.908667 -0.683954,-0.908974 0.659793,-7.83e-4 1.218146,-0.658166 1.093484,-1.287428 -0.04679,-0.236227 -0.266829,-0.506842 -0.938413,-1.154148 l -0.87728,-0.845567 2.148027,-2.053024 c 3.213777,-3.071636 5.188386,-5.425297 7.008672,-8.354071 3.648816,-5.870813 4.308298,-11.441468 1.91789,-16.20047 -0.445713,-0.887359 -1.455103,-2.321477 -2.126745,-3.021628 l -0.510533,-0.532205 0.387868,0.04094 c 3.08381,0.325466 5.901219,1.593542 8.050335,3.623342 4.892838,4.621195 5.222211,12.010838 0.76006,17.052344 -0.283641,0.320466 -3.836131,3.725214 -7.894423,7.566105 l -7.378715,6.983437 z"
       id="path34107" />
    <path
       style="fill:#e777e9;fill-opacity:1;stroke-width:0.0899864"
       d="m 22.514629,60.330355 c -1.929165,-0.28023 -3.268867,-0.674733 -4.601596,-1.355034 -0.870704,-0.444456 -1.863599,-1.093978 -2.405193,-1.573405 l -0.312405,-0.276547 2.32072,-0.0039 c 3.457948,-0.0059 4.777953,-0.230085 6.595133,-1.120223 2.726568,-1.335599 5.242837,-3.530601 12.745787,-11.118453 l 3.452914,-3.491983 1.590188,1.550358 c 0.874604,0.852698 1.729615,1.697984 1.900024,1.878412 l 0.309834,0.328054 -5.665342,5.764526 c -3.115938,3.170489 -5.966589,6.021708 -6.334781,6.336042 -1.721272,1.469493 -3.88581,2.512342 -6.038517,2.909289 -0.768485,0.141705 -3.018554,0.251089 -3.556766,0.172909 z"
       id="path37766" />
    <line
       x1="28.5625"
       x2="41.421902"
       y1="30.4062"
       y2="43.265598"
       fill="none"
       stroke="#000000"
       stroke-linecap="round"
       stroke-miterlimit="10"
       stroke-width="2"
       id="line78" />
    <path
       fill="#000000"
       stroke="none"
       d="m 47.5877,12.2742 c 3.1001,0 6.2001,1.1759 8.5519,3.5276 v 0 c 4.7035,4.7035 4.7035,12.4002 0,17.1038 L 32.52,56.5251 c -2.3518,2.3518 -5.4518,3.5277 -8.5519,3.5277 -3.1001,0 -6.2001,-1.1759 -8.5519,-3.5277 v 0 c -4.7035,-4.7035 -4.7035,-12.4002 0,-17.1038 L 39.0357,15.8018 c 2.3518,-2.3518 5.4519,-3.5276 8.552,-3.5276 m 0,-2 c -3.7741,0 -7.3135,1.4608 -9.9661,4.1134 L 14.002,38.0071 c -5.4953,5.4953 -5.4953,14.4369 0,19.9322 2.6526,2.6526 6.192,4.1135 9.9661,4.1135 3.7741,0 7.3135,-1.4608 9.9661,-4.1134 L 57.5538,34.3199 c 5.4953,-5.4953 5.4953,-14.4369 0,-19.9322 -2.6526,-2.6527 -6.192,-4.1135 -9.9661,-4.1135 z"
       id="path76" />
  </g>
</svg>
